<?xml version="1.0" encoding="UTF-8" standalone="no"?>
<!-- Created with Inkscape (http://www.inkscape.org/) -->

<svg
   version="1.1"
   id="svg1"
   width="476.44238"
   height="1339.0063"
   viewBox="0 0 476.44238 1339.0063"
   xmlns="http://www.w3.org/2000/svg"
   xmlns:svg="http://www.w3.org/2000/svg">
  <defs
     id="defs1" />
  <g
     id="g1"
     transform="translate(-1667.6914,-78.364162)">
    <path
       style="fill:#000000"
       d="m 1887.6159,94.353333 c -3.1502,4.9426 -10.3326,16.473097 -15.9609,25.623297 -5.6284,9.1502 -15.9547,25.8707 -22.9475,37.1566 -6.9928,11.2859 -15.7437,25.4453 -19.4466,31.4651 -3.7028,6.0199 -11.9739,19.3863 -18.3802,29.7031 -10.6647,17.1742 -17.4382,28.1162 -44.069,71.1893 -5.0519,8.171 -10.2519,16.4707 -11.5557,18.4435 -1.3038,1.9728 -4.8404,7.6639 -7.8593,12.6468 -3.0188,4.9829 -12.201,19.8484 -20.4049,33.0346 -8.2038,13.1861 -20.7599,33.4046 -27.902,44.93 -7.1423,11.5254 -14.4498,23.3098 -16.2388,26.1876 -8.7392,14.058 -13.0061,21.3123 -14.1501,24.0558 -2.466,5.915 -0.2215,16.004 4.6427,20.8682 4.6344,4.6345 14.1919,6.9649 20.4264,4.9805 7.4606,-2.3746 9.0748,-4.6994 53.3557,-76.8466 4.8811,-7.9528 13.6575,-22.0866 19.503,-31.4086 5.8456,-9.3219 14.622,-23.4557 19.5031,-31.4085 4.8812,-7.953 14.7199,-23.8883 21.8639,-35.4119 7.144,-11.5237 16.398,-26.4528 20.5643,-33.1759 40.3904,-65.1753 57.4868,-92.2505 58.7367,-93.0197 1.0382,-0.6389 1.5163,45.3385 1.5983,153.7083 0.064,85.0409 0.5128,155.0156 0.9965,155.4994 0.4838,0.4837 0.4617,1.2973 -0.049,1.8079 -1.1416,1.1416 -1.0785,8.37835 0.083,9.54009 0.4649,0.46485 0.4471,1.24336 -0.04,1.73006 -1.1556,1.15562 -1.1537,408.61261 0,409.7683 0.4857,0.48564 0.4652,1.3008 -0.045,1.8114 -1.1416,1.14163 -1.0785,8.37836 0.083,9.54009 0.4649,0.46485 0.4471,1.24336 -0.04,1.72999 -1.1557,1.1557 -1.1539,411.44124 0,412.59694 0.4857,0.4857 0.4652,1.3008 -0.045,1.8114 -1.1416,1.1416 -1.0785,8.3784 0.083,9.5401 0.4649,0.4648 0.4445,1.2458 -0.045,1.7356 -1.3419,1.3419 -0.9194,56.0552 0.465,60.2138 1.7266,5.1872 9.1857,11.5991 14.6887,12.6271 9.2684,1.7312 18.5384,-3.2086 22.4428,-11.9598 1.5082,-3.3804 1.842,-115.4997 1.8369,-617.19783 0,-337.18694 0.2326,-613.30594 0.5245,-613.59774 1.2994,-1.2995 2.9376,1.2948 52.8221,83.6494 11.1498,18.4073 24.2482,39.9925 29.1076,47.9671 18.0075,29.5519 29.3601,48.1675 35.6262,58.419 20.1997,33.0468 48.2131,79.0729 56.2784,92.4653 6.0541,10.0529 9.2023,12.663 17.3587,14.392 11.9295,2.5288 24.6329,-9.7685 22.9566,-22.2226 -0.5962,-4.4291 -1.9989,-6.9295 -26.2507,-46.7904 -7.5027,-12.3316 -22.8358,-37.6019 -34.0735,-56.1561 -11.2378,-18.5542 -21.5037,-34.8065 -22.8132,-36.116 -1.3096,-1.3096 -4.8399,-3.8369 -7.8452,-5.6164 -9.4339,-5.586 -14.8931,-15.0635 -15.5748,-27.0391 -0.4537,-7.9694 -0.4537,-7.9694 -10.4752,-24.4088 -5.5119,-9.0416 -15.0825,-24.7428 -21.268,-34.8915 -6.1854,-10.1486 -14.7464,-24.1798 -19.0242,-31.1803 -4.278,-7.0004 -13.0636,-21.4432 -19.5236,-32.0952 -34.6444,-57.124897 -41.445,-68.007797 -44.3622,-70.992797 -6.3998,-6.5486 -16.925,-7.0757 -25.2009,-1.2617 -3.3715,2.3684 -5.398,4.8018 -9.9605,11.9598 z m 31.1276,398.688037 c 0.6063,0.60632 0.5875,1.22393 -0.042,1.37248 -0.6293,0.14855 -1.4436,-0.0293 -1.8095,-0.39528 -0.366,-0.36596 -0.3472,-0.98358 0.042,-1.37248 0.3889,-0.38891 1.2032,-0.21103 1.8095,0.39528 z m -0.3953,422.45457 c 0.3889,0.38891 0.4077,1.00657 0.042,1.3725 -0.366,0.36599 -1.1802,0.54383 -1.8095,0.39527 -0.6293,-0.14849 -0.6484,-0.7658 -0.042,-1.37243 0.6064,-0.60634 1.4207,-0.78425 1.8096,-0.39534 z m 0.3953,426.07366 c 0.6063,0.6062 0.5875,1.2238 -0.042,1.3724 -0.6293,0.1485 -1.4436,-0.029 -1.8095,-0.3952 -0.366,-0.3659 -0.3472,-0.9836 0.042,-1.3725 0.3889,-0.3889 1.2032,-0.211 1.8095,0.3953 z"
       id="path1" />
  </g>
</svg>
